<mxfile host="Electron" agent="Mozilla/5.0 (Windows NT 10.0; Win64; x64) AppleWebKit/537.36 (KHTML, like Gecko) draw.io/26.0.16 Chrome/132.0.6834.196 Electron/34.2.0 Safari/537.36" version="26.0.16">
  <diagram name="Page-1" id="e7e014a7-5840-1c2e-5031-d8a46d1fe8dd">
    <mxGraphModel dx="1391" dy="686" grid="1" gridSize="10" guides="1" tooltips="1" connect="1" arrows="1" fold="1" page="1" pageScale="1" pageWidth="1169" pageHeight="826" background="none" math="0" shadow="0">
      <root>
        <mxCell id="0" />
        <mxCell id="1" parent="0" />
        <mxCell id="KLnUujt1nT2IAc9DffuR-41" value="Admin" style="swimlane;whiteSpace=wrap" vertex="1" parent="1">
          <mxGeometry x="290" y="120" width="330" height="700" as="geometry" />
        </mxCell>
        <mxCell id="KLnUujt1nT2IAc9DffuR-44" value="" style="ellipse;html=1;shape=startState;fillColor=#000000;strokeColor=#ff0000;" vertex="1" parent="KLnUujt1nT2IAc9DffuR-41">
          <mxGeometry x="130" y="40" width="30" height="30" as="geometry" />
        </mxCell>
        <mxCell id="KLnUujt1nT2IAc9DffuR-45" value="" style="edgeStyle=orthogonalEdgeStyle;html=1;verticalAlign=bottom;endArrow=open;endSize=8;strokeColor=#ff0000;rounded=0;" edge="1" source="KLnUujt1nT2IAc9DffuR-44" parent="KLnUujt1nT2IAc9DffuR-41">
          <mxGeometry relative="1" as="geometry">
            <mxPoint x="145" y="110" as="targetPoint" />
          </mxGeometry>
        </mxCell>
        <mxCell id="KLnUujt1nT2IAc9DffuR-46" value="Chọn chức năng quản lý đơn đặt hàng" style="rounded=1;whiteSpace=wrap;html=1;" vertex="1" parent="KLnUujt1nT2IAc9DffuR-41">
          <mxGeometry x="92.5" y="110" width="105" height="50" as="geometry" />
        </mxCell>
        <mxCell id="KLnUujt1nT2IAc9DffuR-47" value="" style="endArrow=classic;html=1;rounded=0;exitX=1;exitY=0.5;exitDx=0;exitDy=0;" edge="1" parent="KLnUujt1nT2IAc9DffuR-41" source="KLnUujt1nT2IAc9DffuR-46">
          <mxGeometry width="50" height="50" relative="1" as="geometry">
            <mxPoint x="250" y="180" as="sourcePoint" />
            <mxPoint x="400" y="135" as="targetPoint" />
          </mxGeometry>
        </mxCell>
        <mxCell id="KLnUujt1nT2IAc9DffuR-55" value="Yêu cầu đăng nhập" style="rounded=1;whiteSpace=wrap;html=1;" vertex="1" parent="KLnUujt1nT2IAc9DffuR-41">
          <mxGeometry x="102.5" y="205" width="85" height="50" as="geometry" />
        </mxCell>
        <mxCell id="KLnUujt1nT2IAc9DffuR-58" value="" style="endArrow=classic;html=1;rounded=0;entryX=0;entryY=0.5;entryDx=0;entryDy=0;" edge="1" parent="KLnUujt1nT2IAc9DffuR-41" target="KLnUujt1nT2IAc9DffuR-48">
          <mxGeometry width="50" height="50" relative="1" as="geometry">
            <mxPoint x="190" y="230" as="sourcePoint" />
            <mxPoint x="270" y="170" as="targetPoint" />
          </mxGeometry>
        </mxCell>
        <mxCell id="KLnUujt1nT2IAc9DffuR-60" value="" style="shape=line;html=1;strokeWidth=6;strokeColor=#ff0000;" vertex="1" parent="KLnUujt1nT2IAc9DffuR-41">
          <mxGeometry x="50" y="400" width="195" height="10" as="geometry" />
        </mxCell>
        <mxCell id="KLnUujt1nT2IAc9DffuR-62" value="Chọn chức năng quản lý" style="rounded=1;whiteSpace=wrap;html=1;" vertex="1" parent="KLnUujt1nT2IAc9DffuR-41">
          <mxGeometry x="102.5" y="300" width="87" height="50" as="geometry" />
        </mxCell>
        <mxCell id="KLnUujt1nT2IAc9DffuR-63" value="" style="endArrow=classic;html=1;rounded=0;exitX=0.5;exitY=1;exitDx=0;exitDy=0;entryX=0.501;entryY=0.803;entryDx=0;entryDy=0;entryPerimeter=0;" edge="1" parent="KLnUujt1nT2IAc9DffuR-41" source="KLnUujt1nT2IAc9DffuR-62" target="KLnUujt1nT2IAc9DffuR-60">
          <mxGeometry width="50" height="50" relative="1" as="geometry">
            <mxPoint x="110" y="430" as="sourcePoint" />
            <mxPoint x="160" y="380" as="targetPoint" />
          </mxGeometry>
        </mxCell>
        <mxCell id="KLnUujt1nT2IAc9DffuR-64" value="" style="endArrow=classic;html=1;rounded=0;exitX=0.25;exitY=0.5;exitDx=0;exitDy=0;exitPerimeter=0;entryX=0.5;entryY=0;entryDx=0;entryDy=0;" edge="1" parent="KLnUujt1nT2IAc9DffuR-41" source="KLnUujt1nT2IAc9DffuR-60" target="KLnUujt1nT2IAc9DffuR-66">
          <mxGeometry width="50" height="50" relative="1" as="geometry">
            <mxPoint x="50" y="540" as="sourcePoint" />
            <mxPoint x="100" y="460" as="targetPoint" />
          </mxGeometry>
        </mxCell>
        <mxCell id="KLnUujt1nT2IAc9DffuR-65" value="" style="endArrow=classic;html=1;rounded=0;exitX=0.75;exitY=0.5;exitDx=0;exitDy=0;exitPerimeter=0;entryX=0.5;entryY=0;entryDx=0;entryDy=0;" edge="1" parent="KLnUujt1nT2IAc9DffuR-41" source="KLnUujt1nT2IAc9DffuR-60" target="KLnUujt1nT2IAc9DffuR-67">
          <mxGeometry width="50" height="50" relative="1" as="geometry">
            <mxPoint x="190" y="510" as="sourcePoint" />
            <mxPoint x="190" y="460" as="targetPoint" />
          </mxGeometry>
        </mxCell>
        <mxCell id="KLnUujt1nT2IAc9DffuR-66" value="Cập nhật trạng thái đơn hàng" style="rounded=1;whiteSpace=wrap;html=1;" vertex="1" parent="KLnUujt1nT2IAc9DffuR-41">
          <mxGeometry x="30" y="460" width="100" height="50" as="geometry" />
        </mxCell>
        <mxCell id="KLnUujt1nT2IAc9DffuR-67" value="Chỉnh sửa thông tin đơn hàng" style="rounded=1;whiteSpace=wrap;html=1;" vertex="1" parent="KLnUujt1nT2IAc9DffuR-41">
          <mxGeometry x="160" y="460" width="100" height="50" as="geometry" />
        </mxCell>
        <mxCell id="KLnUujt1nT2IAc9DffuR-68" value="" style="endArrow=classic;html=1;rounded=0;exitX=0.5;exitY=1;exitDx=0;exitDy=0;entryX=0.25;entryY=0.5;entryDx=0;entryDy=0;entryPerimeter=0;" edge="1" parent="KLnUujt1nT2IAc9DffuR-41" source="KLnUujt1nT2IAc9DffuR-66" target="KLnUujt1nT2IAc9DffuR-70">
          <mxGeometry width="50" height="50" relative="1" as="geometry">
            <mxPoint x="50" y="580" as="sourcePoint" />
            <mxPoint x="90" y="560" as="targetPoint" />
          </mxGeometry>
        </mxCell>
        <mxCell id="KLnUujt1nT2IAc9DffuR-69" value="" style="endArrow=classic;html=1;rounded=0;exitX=0.5;exitY=1;exitDx=0;exitDy=0;entryX=0.75;entryY=0.5;entryDx=0;entryDy=0;entryPerimeter=0;" edge="1" parent="KLnUujt1nT2IAc9DffuR-41" source="KLnUujt1nT2IAc9DffuR-67" target="KLnUujt1nT2IAc9DffuR-70">
          <mxGeometry width="50" height="50" relative="1" as="geometry">
            <mxPoint x="170" y="580" as="sourcePoint" />
            <mxPoint x="190" y="560" as="targetPoint" />
          </mxGeometry>
        </mxCell>
        <mxCell id="KLnUujt1nT2IAc9DffuR-70" value="" style="shape=line;html=1;strokeWidth=6;strokeColor=#ff0000;" vertex="1" parent="KLnUujt1nT2IAc9DffuR-41">
          <mxGeometry x="50" y="560" width="200" height="10" as="geometry" />
        </mxCell>
        <mxCell id="KLnUujt1nT2IAc9DffuR-71" value="" style="edgeStyle=orthogonalEdgeStyle;html=1;verticalAlign=bottom;endArrow=open;endSize=8;strokeColor=#ff0000;rounded=0;" edge="1" source="KLnUujt1nT2IAc9DffuR-70" parent="KLnUujt1nT2IAc9DffuR-41">
          <mxGeometry relative="1" as="geometry">
            <mxPoint x="150" y="640" as="targetPoint" />
          </mxGeometry>
        </mxCell>
        <mxCell id="KLnUujt1nT2IAc9DffuR-72" value="" style="ellipse;html=1;shape=endState;fillColor=#000000;strokeColor=#ff0000;" vertex="1" parent="KLnUujt1nT2IAc9DffuR-41">
          <mxGeometry x="133" y="640" width="30" height="30" as="geometry" />
        </mxCell>
        <mxCell id="KLnUujt1nT2IAc9DffuR-43" value="System" style="swimlane;whiteSpace=wrap" vertex="1" parent="1">
          <mxGeometry x="620" y="120" width="340" height="700" as="geometry" />
        </mxCell>
        <mxCell id="KLnUujt1nT2IAc9DffuR-48" value="Kiểm tra đăng nhập" style="rounded=1;whiteSpace=wrap;html=1;" vertex="1" parent="KLnUujt1nT2IAc9DffuR-43">
          <mxGeometry x="70" y="115" width="90" height="40" as="geometry" />
        </mxCell>
        <mxCell id="KLnUujt1nT2IAc9DffuR-50" value="Tài khoản" style="rounded=0;whiteSpace=wrap;html=1;" vertex="1" parent="KLnUujt1nT2IAc9DffuR-43">
          <mxGeometry x="180" y="40" width="90" height="50" as="geometry" />
        </mxCell>
        <mxCell id="KLnUujt1nT2IAc9DffuR-51" value="" style="html=1;labelBackgroundColor=#ffffff;startArrow=none;startFill=0;startSize=6;endArrow=classic;endFill=1;endSize=6;jettySize=auto;orthogonalLoop=1;strokeWidth=1;dashed=1;fontSize=14;rounded=0;entryX=0.5;entryY=0;entryDx=0;entryDy=0;exitX=0;exitY=0.5;exitDx=0;exitDy=0;" edge="1" parent="KLnUujt1nT2IAc9DffuR-43" source="KLnUujt1nT2IAc9DffuR-50" target="KLnUujt1nT2IAc9DffuR-48">
          <mxGeometry width="60" height="60" relative="1" as="geometry">
            <mxPoint x="40" y="120" as="sourcePoint" />
            <mxPoint x="100" y="60" as="targetPoint" />
          </mxGeometry>
        </mxCell>
        <mxCell id="KLnUujt1nT2IAc9DffuR-52" value="" style="endArrow=classic;html=1;rounded=0;exitX=0.5;exitY=1;exitDx=0;exitDy=0;entryX=0.5;entryY=0;entryDx=0;entryDy=0;" edge="1" parent="KLnUujt1nT2IAc9DffuR-43" source="KLnUujt1nT2IAc9DffuR-48" target="KLnUujt1nT2IAc9DffuR-53">
          <mxGeometry width="50" height="50" relative="1" as="geometry">
            <mxPoint x="70" y="260" as="sourcePoint" />
            <mxPoint x="110" y="210" as="targetPoint" />
          </mxGeometry>
        </mxCell>
        <mxCell id="KLnUujt1nT2IAc9DffuR-53" value="" style="rhombus;whiteSpace=wrap;html=1;" vertex="1" parent="KLnUujt1nT2IAc9DffuR-43">
          <mxGeometry x="75" y="200" width="80" height="60" as="geometry" />
        </mxCell>
        <mxCell id="KLnUujt1nT2IAc9DffuR-56" value="" style="endArrow=classic;html=1;rounded=0;entryX=1;entryY=0.5;entryDx=0;entryDy=0;exitX=0;exitY=0.5;exitDx=0;exitDy=0;" edge="1" parent="1" source="KLnUujt1nT2IAc9DffuR-53" target="KLnUujt1nT2IAc9DffuR-55">
          <mxGeometry width="50" height="50" relative="1" as="geometry">
            <mxPoint x="480" y="410" as="sourcePoint" />
            <mxPoint x="530" y="360" as="targetPoint" />
          </mxGeometry>
        </mxCell>
        <mxCell id="KLnUujt1nT2IAc9DffuR-57" value="Sai" style="text;html=1;align=center;verticalAlign=middle;resizable=0;points=[];autosize=1;strokeColor=none;fillColor=none;" vertex="1" parent="1">
          <mxGeometry x="660" y="318" width="40" height="30" as="geometry" />
        </mxCell>
        <mxCell id="KLnUujt1nT2IAc9DffuR-59" value="" style="endArrow=classic;html=1;rounded=0;exitX=0.5;exitY=1;exitDx=0;exitDy=0;entryX=1;entryY=0.5;entryDx=0;entryDy=0;" edge="1" parent="1" source="KLnUujt1nT2IAc9DffuR-53" target="KLnUujt1nT2IAc9DffuR-62">
          <mxGeometry width="50" height="50" relative="1" as="geometry">
            <mxPoint x="710" y="450" as="sourcePoint" />
            <mxPoint x="735" y="430" as="targetPoint" />
            <Array as="points">
              <mxPoint x="735" y="440" />
            </Array>
          </mxGeometry>
        </mxCell>
      </root>
    </mxGraphModel>
  </diagram>
</mxfile>
